<mxfile host="app.diagrams.net" modified="2021-10-26T10:37:49.302Z" agent="5.0 (Windows NT 10.0; Win64; x64) AppleWebKit/537.36 (KHTML, like Gecko) Chrome/92.0.4515.159 Safari/537.36" etag="omCn42T3-qfFsFyeOJbW" version="15.5.1" type="github">
  <diagram id="tBd2eVAR9nbwGEP9nhFC" name="Netty线程模型图">
    <mxGraphModel dx="1267" dy="809" grid="1" gridSize="10" guides="1" tooltips="1" connect="1" arrows="1" fold="1" page="1" pageScale="1" pageWidth="827" pageHeight="1169" math="0" shadow="0">
      <root>
        <mxCell id="0" />
        <mxCell id="1" parent="0" />
        <mxCell id="A3cl_4o9g6FOTUse-dN4-3" style="edgeStyle=orthogonalEdgeStyle;rounded=0;orthogonalLoop=1;jettySize=auto;html=1;exitX=1;exitY=0.5;exitDx=0;exitDy=0;entryX=0;entryY=0.5;entryDx=0;entryDy=0;dashed=1;" edge="1" parent="1" source="A3cl_4o9g6FOTUse-dN4-1" target="A3cl_4o9g6FOTUse-dN4-2">
          <mxGeometry relative="1" as="geometry" />
        </mxCell>
        <mxCell id="A3cl_4o9g6FOTUse-dN4-4" value="连接请求" style="edgeLabel;html=1;align=center;verticalAlign=middle;resizable=0;points=[];" vertex="1" connectable="0" parent="A3cl_4o9g6FOTUse-dN4-3">
          <mxGeometry x="-0.1589" relative="1" as="geometry">
            <mxPoint as="offset" />
          </mxGeometry>
        </mxCell>
        <mxCell id="A3cl_4o9g6FOTUse-dN4-28" style="edgeStyle=orthogonalEdgeStyle;rounded=0;orthogonalLoop=1;jettySize=auto;html=1;exitX=0.5;exitY=1;exitDx=0;exitDy=0;entryX=0.5;entryY=1;entryDx=0;entryDy=0;dashed=1;" edge="1" parent="1" source="A3cl_4o9g6FOTUse-dN4-1" target="A3cl_4o9g6FOTUse-dN4-21">
          <mxGeometry relative="1" as="geometry" />
        </mxCell>
        <mxCell id="A3cl_4o9g6FOTUse-dN4-29" value="读写请求" style="edgeLabel;html=1;align=center;verticalAlign=middle;resizable=0;points=[];" vertex="1" connectable="0" parent="A3cl_4o9g6FOTUse-dN4-28">
          <mxGeometry x="0.0133" y="1" relative="1" as="geometry">
            <mxPoint as="offset" />
          </mxGeometry>
        </mxCell>
        <mxCell id="A3cl_4o9g6FOTUse-dN4-1" value="client" style="ellipse;whiteSpace=wrap;html=1;aspect=fixed;fillColor=#B3FF66;" vertex="1" parent="1">
          <mxGeometry x="40" y="240" width="50" height="50" as="geometry" />
        </mxCell>
        <mxCell id="A3cl_4o9g6FOTUse-dN4-20" value="" style="edgeStyle=orthogonalEdgeStyle;rounded=0;orthogonalLoop=1;jettySize=auto;html=1;" edge="1" parent="1" source="A3cl_4o9g6FOTUse-dN4-2" target="A3cl_4o9g6FOTUse-dN4-19">
          <mxGeometry relative="1" as="geometry" />
        </mxCell>
        <mxCell id="A3cl_4o9g6FOTUse-dN4-40" style="edgeStyle=orthogonalEdgeStyle;rounded=0;orthogonalLoop=1;jettySize=auto;html=1;exitX=0.75;exitY=1;exitDx=0;exitDy=0;entryX=0.5;entryY=0;entryDx=0;entryDy=0;" edge="1" parent="1" source="A3cl_4o9g6FOTUse-dN4-2" target="A3cl_4o9g6FOTUse-dN4-38">
          <mxGeometry relative="1" as="geometry">
            <Array as="points">
              <mxPoint x="278" y="310" />
              <mxPoint x="375" y="310" />
            </Array>
          </mxGeometry>
        </mxCell>
        <mxCell id="A3cl_4o9g6FOTUse-dN4-2" value="selector" style="rounded=0;whiteSpace=wrap;html=1;fillColor=#FFFFFF;" vertex="1" parent="1">
          <mxGeometry x="210" y="250" width="90" height="30" as="geometry" />
        </mxCell>
        <mxCell id="A3cl_4o9g6FOTUse-dN4-5" value="ServerBootstrap" style="rounded=0;whiteSpace=wrap;html=1;fillColor=#F8CECC;verticalAlign=top;" vertex="1" parent="1">
          <mxGeometry x="400" y="30" width="280" height="130" as="geometry" />
        </mxCell>
        <mxCell id="A3cl_4o9g6FOTUse-dN4-10" value="" style="edgeStyle=orthogonalEdgeStyle;rounded=0;orthogonalLoop=1;jettySize=auto;html=1;" edge="1" parent="1" source="A3cl_4o9g6FOTUse-dN4-6" target="A3cl_4o9g6FOTUse-dN4-9">
          <mxGeometry relative="1" as="geometry" />
        </mxCell>
        <mxCell id="A3cl_4o9g6FOTUse-dN4-6" value="bossGroup&lt;br&gt;EventLoopGroup" style="rounded=0;whiteSpace=wrap;html=1;fillColor=#99FFFF;" vertex="1" parent="1">
          <mxGeometry x="414" y="90" width="110" height="40" as="geometry" />
        </mxCell>
        <mxCell id="A3cl_4o9g6FOTUse-dN4-12" value="" style="edgeStyle=orthogonalEdgeStyle;rounded=0;orthogonalLoop=1;jettySize=auto;html=1;" edge="1" parent="1" source="A3cl_4o9g6FOTUse-dN4-7" target="A3cl_4o9g6FOTUse-dN4-11">
          <mxGeometry relative="1" as="geometry" />
        </mxCell>
        <mxCell id="A3cl_4o9g6FOTUse-dN4-33" style="edgeStyle=orthogonalEdgeStyle;rounded=0;orthogonalLoop=1;jettySize=auto;html=1;exitX=0.5;exitY=1;exitDx=0;exitDy=0;entryX=0.5;entryY=0;entryDx=0;entryDy=0;" edge="1" parent="1" source="A3cl_4o9g6FOTUse-dN4-7" target="A3cl_4o9g6FOTUse-dN4-34">
          <mxGeometry relative="1" as="geometry">
            <mxPoint x="910" y="230" as="targetPoint" />
          </mxGeometry>
        </mxCell>
        <mxCell id="A3cl_4o9g6FOTUse-dN4-7" value="workerGroup&lt;br&gt;EventLoopGroup" style="rounded=0;whiteSpace=wrap;html=1;fillColor=#99FFFF;" vertex="1" parent="1">
          <mxGeometry x="560" y="90" width="110" height="40" as="geometry" />
        </mxCell>
        <mxCell id="A3cl_4o9g6FOTUse-dN4-8" value="监听端口" style="rounded=0;whiteSpace=wrap;html=1;fillColor=#FFE599;" vertex="1" parent="1">
          <mxGeometry x="400" y="30" width="80" height="30" as="geometry" />
        </mxCell>
        <mxCell id="A3cl_4o9g6FOTUse-dN4-13" style="edgeStyle=orthogonalEdgeStyle;rounded=0;orthogonalLoop=1;jettySize=auto;html=1;exitX=0.5;exitY=1;exitDx=0;exitDy=0;entryX=1;entryY=0.5;entryDx=0;entryDy=0;" edge="1" parent="1" source="A3cl_4o9g6FOTUse-dN4-9" target="A3cl_4o9g6FOTUse-dN4-2">
          <mxGeometry relative="1" as="geometry" />
        </mxCell>
        <mxCell id="A3cl_4o9g6FOTUse-dN4-9" value="EventLoop" style="rounded=0;whiteSpace=wrap;html=1;fillColor=#FFFFFF;" vertex="1" parent="1">
          <mxGeometry x="411" y="210" width="116" height="30" as="geometry" />
        </mxCell>
        <mxCell id="A3cl_4o9g6FOTUse-dN4-24" style="edgeStyle=orthogonalEdgeStyle;rounded=0;orthogonalLoop=1;jettySize=auto;html=1;exitX=0.5;exitY=1;exitDx=0;exitDy=0;entryX=0.5;entryY=0;entryDx=0;entryDy=0;" edge="1" parent="1" source="A3cl_4o9g6FOTUse-dN4-11" target="A3cl_4o9g6FOTUse-dN4-21">
          <mxGeometry relative="1" as="geometry" />
        </mxCell>
        <mxCell id="A3cl_4o9g6FOTUse-dN4-11" value="EventLoop" style="rounded=0;whiteSpace=wrap;html=1;fillColor=#FFFFFF;" vertex="1" parent="1">
          <mxGeometry x="560" y="210" width="110" height="30" as="geometry" />
        </mxCell>
        <mxCell id="A3cl_4o9g6FOTUse-dN4-15" style="edgeStyle=orthogonalEdgeStyle;rounded=0;orthogonalLoop=1;jettySize=auto;html=1;exitX=0.5;exitY=0;exitDx=0;exitDy=0;entryX=0;entryY=0.5;entryDx=0;entryDy=0;dashed=1;" edge="1" parent="1" source="A3cl_4o9g6FOTUse-dN4-14" target="A3cl_4o9g6FOTUse-dN4-8">
          <mxGeometry relative="1" as="geometry" />
        </mxCell>
        <mxCell id="A3cl_4o9g6FOTUse-dN4-16" value="绑定" style="edgeLabel;html=1;align=center;verticalAlign=middle;resizable=0;points=[];" vertex="1" connectable="0" parent="A3cl_4o9g6FOTUse-dN4-15">
          <mxGeometry x="0.0338" y="1" relative="1" as="geometry">
            <mxPoint as="offset" />
          </mxGeometry>
        </mxCell>
        <mxCell id="A3cl_4o9g6FOTUse-dN4-17" style="edgeStyle=orthogonalEdgeStyle;rounded=0;orthogonalLoop=1;jettySize=auto;html=1;exitX=0;exitY=0.5;exitDx=0;exitDy=0;entryX=0.75;entryY=0;entryDx=0;entryDy=0;" edge="1" parent="1" source="A3cl_4o9g6FOTUse-dN4-14" target="A3cl_4o9g6FOTUse-dN4-2">
          <mxGeometry relative="1" as="geometry" />
        </mxCell>
        <mxCell id="A3cl_4o9g6FOTUse-dN4-18" value="注册accept事件" style="edgeLabel;html=1;align=center;verticalAlign=middle;resizable=0;points=[];" vertex="1" connectable="0" parent="A3cl_4o9g6FOTUse-dN4-17">
          <mxGeometry x="-0.0587" y="-1" relative="1" as="geometry">
            <mxPoint as="offset" />
          </mxGeometry>
        </mxCell>
        <mxCell id="A3cl_4o9g6FOTUse-dN4-14" value="NioServerSocketChannel" style="rounded=0;whiteSpace=wrap;html=1;fillColor=#FFFFFF;verticalAlign=top;" vertex="1" parent="1">
          <mxGeometry x="300" y="150" width="155" height="30" as="geometry" />
        </mxCell>
        <mxCell id="A3cl_4o9g6FOTUse-dN4-22" value="" style="edgeStyle=orthogonalEdgeStyle;rounded=0;orthogonalLoop=1;jettySize=auto;html=1;" edge="1" parent="1" source="A3cl_4o9g6FOTUse-dN4-19" target="A3cl_4o9g6FOTUse-dN4-21">
          <mxGeometry relative="1" as="geometry" />
        </mxCell>
        <mxCell id="A3cl_4o9g6FOTUse-dN4-23" value="注册读事件" style="edgeLabel;html=1;align=center;verticalAlign=middle;resizable=0;points=[];" vertex="1" connectable="0" parent="A3cl_4o9g6FOTUse-dN4-22">
          <mxGeometry x="-0.1294" y="1" relative="1" as="geometry">
            <mxPoint as="offset" />
          </mxGeometry>
        </mxCell>
        <mxCell id="A3cl_4o9g6FOTUse-dN4-19" value="NioSocketChannel" style="rounded=0;whiteSpace=wrap;html=1;fillColor=#FFFFFF;" vertex="1" parent="1">
          <mxGeometry x="195" y="340" width="120" height="30" as="geometry" />
        </mxCell>
        <mxCell id="A3cl_4o9g6FOTUse-dN4-26" value="" style="edgeStyle=orthogonalEdgeStyle;rounded=0;orthogonalLoop=1;jettySize=auto;html=1;" edge="1" parent="1" source="A3cl_4o9g6FOTUse-dN4-21" target="A3cl_4o9g6FOTUse-dN4-25">
          <mxGeometry relative="1" as="geometry" />
        </mxCell>
        <mxCell id="A3cl_4o9g6FOTUse-dN4-27" value="读取channel数据&lt;br&gt;交给pipline处理" style="edgeLabel;html=1;align=center;verticalAlign=middle;resizable=0;points=[];" vertex="1" connectable="0" parent="A3cl_4o9g6FOTUse-dN4-26">
          <mxGeometry x="0.4089" y="-1" relative="1" as="geometry">
            <mxPoint as="offset" />
          </mxGeometry>
        </mxCell>
        <mxCell id="A3cl_4o9g6FOTUse-dN4-21" value="selector" style="rounded=0;whiteSpace=wrap;html=1;fillColor=#FFFFFF;" vertex="1" parent="1">
          <mxGeometry x="555" y="340" width="120" height="30" as="geometry" />
        </mxCell>
        <mxCell id="A3cl_4o9g6FOTUse-dN4-25" value="pipline" style="rounded=0;whiteSpace=wrap;html=1;fillColor=#FFFFFF;" vertex="1" parent="1">
          <mxGeometry x="755" y="460" width="120" height="30" as="geometry" />
        </mxCell>
        <mxCell id="A3cl_4o9g6FOTUse-dN4-31" style="edgeStyle=orthogonalEdgeStyle;rounded=0;orthogonalLoop=1;jettySize=auto;html=1;exitX=1;exitY=0.5;exitDx=0;exitDy=0;entryX=0.181;entryY=0.064;entryDx=0;entryDy=0;entryPerimeter=0;dashed=1;" edge="1" parent="1" source="A3cl_4o9g6FOTUse-dN4-30" target="A3cl_4o9g6FOTUse-dN4-2">
          <mxGeometry relative="1" as="geometry" />
        </mxCell>
        <mxCell id="A3cl_4o9g6FOTUse-dN4-32" value="连接请求" style="edgeLabel;html=1;align=center;verticalAlign=middle;resizable=0;points=[];" vertex="1" connectable="0" parent="A3cl_4o9g6FOTUse-dN4-31">
          <mxGeometry x="-0.4151" relative="1" as="geometry">
            <mxPoint as="offset" />
          </mxGeometry>
        </mxCell>
        <mxCell id="A3cl_4o9g6FOTUse-dN4-46" style="edgeStyle=orthogonalEdgeStyle;rounded=0;orthogonalLoop=1;jettySize=auto;html=1;exitX=0.5;exitY=1;exitDx=0;exitDy=0;entryX=0.5;entryY=1;entryDx=0;entryDy=0;dashed=1;" edge="1" parent="1" source="A3cl_4o9g6FOTUse-dN4-30" target="A3cl_4o9g6FOTUse-dN4-35">
          <mxGeometry relative="1" as="geometry" />
        </mxCell>
        <mxCell id="A3cl_4o9g6FOTUse-dN4-47" value="读写请求" style="edgeLabel;html=1;align=center;verticalAlign=middle;resizable=0;points=[];" vertex="1" connectable="0" parent="A3cl_4o9g6FOTUse-dN4-46">
          <mxGeometry x="0.2173" y="-1" relative="1" as="geometry">
            <mxPoint as="offset" />
          </mxGeometry>
        </mxCell>
        <mxCell id="A3cl_4o9g6FOTUse-dN4-30" value="client" style="ellipse;whiteSpace=wrap;html=1;aspect=fixed;fillColor=#B3FF66;" vertex="1" parent="1">
          <mxGeometry y="90" width="50" height="50" as="geometry" />
        </mxCell>
        <mxCell id="A3cl_4o9g6FOTUse-dN4-36" value="" style="edgeStyle=orthogonalEdgeStyle;rounded=0;orthogonalLoop=1;jettySize=auto;html=1;" edge="1" parent="1" source="A3cl_4o9g6FOTUse-dN4-34" target="A3cl_4o9g6FOTUse-dN4-35">
          <mxGeometry relative="1" as="geometry" />
        </mxCell>
        <mxCell id="A3cl_4o9g6FOTUse-dN4-34" value="EventLoop" style="rounded=0;whiteSpace=wrap;html=1;fillColor=#FFFFFF;" vertex="1" parent="1">
          <mxGeometry x="940" y="230" width="110" height="30" as="geometry" />
        </mxCell>
        <mxCell id="A3cl_4o9g6FOTUse-dN4-44" value="" style="edgeStyle=orthogonalEdgeStyle;rounded=0;orthogonalLoop=1;jettySize=auto;html=1;" edge="1" parent="1" source="A3cl_4o9g6FOTUse-dN4-35" target="A3cl_4o9g6FOTUse-dN4-43">
          <mxGeometry relative="1" as="geometry" />
        </mxCell>
        <mxCell id="A3cl_4o9g6FOTUse-dN4-45" value="读取channel数据&lt;br&gt;交给pipline处理" style="edgeLabel;html=1;align=center;verticalAlign=middle;resizable=0;points=[];" vertex="1" connectable="0" parent="A3cl_4o9g6FOTUse-dN4-44">
          <mxGeometry x="0.3123" y="-1" relative="1" as="geometry">
            <mxPoint as="offset" />
          </mxGeometry>
        </mxCell>
        <mxCell id="A3cl_4o9g6FOTUse-dN4-35" value="selector" style="rounded=0;whiteSpace=wrap;html=1;fillColor=#FFFFFF;" vertex="1" parent="1">
          <mxGeometry x="940" y="510" width="110" height="30" as="geometry" />
        </mxCell>
        <mxCell id="A3cl_4o9g6FOTUse-dN4-41" style="edgeStyle=orthogonalEdgeStyle;rounded=0;orthogonalLoop=1;jettySize=auto;html=1;exitX=1;exitY=0.5;exitDx=0;exitDy=0;entryX=0;entryY=0.5;entryDx=0;entryDy=0;" edge="1" parent="1" source="A3cl_4o9g6FOTUse-dN4-38" target="A3cl_4o9g6FOTUse-dN4-35">
          <mxGeometry relative="1" as="geometry" />
        </mxCell>
        <mxCell id="A3cl_4o9g6FOTUse-dN4-42" value="注册读事件" style="edgeLabel;html=1;align=center;verticalAlign=middle;resizable=0;points=[];" vertex="1" connectable="0" parent="A3cl_4o9g6FOTUse-dN4-41">
          <mxGeometry x="-0.1107" y="1" relative="1" as="geometry">
            <mxPoint as="offset" />
          </mxGeometry>
        </mxCell>
        <mxCell id="A3cl_4o9g6FOTUse-dN4-38" value="NioSocketChannel" style="rounded=0;whiteSpace=wrap;html=1;fillColor=#FFFFFF;" vertex="1" parent="1">
          <mxGeometry x="315" y="510" width="120" height="30" as="geometry" />
        </mxCell>
        <mxCell id="A3cl_4o9g6FOTUse-dN4-43" value="pipline" style="rounded=0;whiteSpace=wrap;html=1;fillColor=#FFFFFF;" vertex="1" parent="1">
          <mxGeometry x="1090" y="600" width="110" height="30" as="geometry" />
        </mxCell>
      </root>
    </mxGraphModel>
  </diagram>
</mxfile>
